# xmcd CD database file
#
# Track frame offsets:
#	150
#	22732
#	41312
#	63920
#
# Disc length: 1098 seconds
#
# Revision: 0
# Processed by: cddbd v1.5.1PL0 Copyright (c) Steve Scherf et al.
# Submitted via: CDex 1.51
#
DISCID=21044804
DTITLE=保志総一朗 - Shinig Tears
DYEAR=2004
DGENRE=未分類 (一般)
TTITLE0=Shining Tears
TTITLE1=光のシルエット
TTITLE2=Shining Tears(Off Vocal Version)
TTITLE3=光のシルエット(Off Vocal Version)
EXTD=YEAR: 2004.11.26
EXTT0=
EXTT1=
EXTT2=
EXTT3=
PLAYORDER=
